<?xml version="1.0" encoding="UTF-8"?>
<svg xmlns="http://www.w3.org/2000/svg" viewBox="0 0 170 49.75">
  <defs>
    <style>.cls-1{fill:#024593;}</style>
  </defs>
  <g id="Ebene_2" data-name="Ebene 2">
    <g id="Ebene_1-2" data-name="Ebene 1">
      <path class="cls-1" d="M44.26,37.29v-7H41.6v-.93H48v.93H45.35v7Z"></path>
      <path class="cls-1" d="M48.54,34.71c0,1.15.45,2,1.58,2a1.2,1.2,0,0,0,1.3-1.14h1A1.89,1.89,0,0,1,52,36.71a2.37,2.37,0,0,1-1.91.74c-1.73,0-2.56-1.08-2.56-2.83A2.84,2.84,0,0,1,48.6,32a2.62,2.62,0,0,1,1.51-.41c2.47,0,2.42,2.19,2.4,3.09ZM51.45,34c0-.53-.09-1.63-1.36-1.63A1.49,1.49,0,0,0,48.58,34Z"></path>
      <path class="cls-1" d="M54.71,35.65c0,.42.21,1,1.21,1a1.15,1.15,0,0,0,1-.35.88.88,0,0,0,.18-.52c0-.54-.39-.64-1.21-.83-1.16-.26-2.12-.49-2.12-1.65,0-1,.88-1.67,2.15-1.67a2.23,2.23,0,0,1,2,.86,1.78,1.78,0,0,1,.14.8H57c0-.83-.69-.9-1.07-.9-.15,0-1.12,0-1.12.79,0,.51.5.63.78.71,1.53.36,1.86.45,2.19.76a1.35,1.35,0,0,1,.42,1,1.69,1.69,0,0,1-.75,1.4,3.17,3.17,0,0,1-1.64.37c-1.12,0-2.17-.46-2.15-1.79Z"></path>
      <path class="cls-1" d="M58.88,31.74h1V30.59l1-.33v1.48h1.23v.76H60.88v3.31c0,.28,0,.74.74.74a1.73,1.73,0,0,0,.49-.06v.81a5.45,5.45,0,0,1-.85.06c-.95,0-1.4-.27-1.4-1.17V32.5h-1Z"></path>
      <path class="cls-1" d="M69.58,37.29a2.9,2.9,0,0,1-.1-.83,1.78,1.78,0,0,1-1.7,1c-1.27,0-2-.71-2-1.63a1.8,1.8,0,0,1,1-1.61,4.3,4.3,0,0,1,1.91-.37,7,7,0,0,1,.75,0c0-.68,0-1-.2-1.22a1.26,1.26,0,0,0-1-.37c-1,0-1.1.72-1.11.94h-1a1.81,1.81,0,0,1,.38-1.05,2.51,2.51,0,0,1,1.79-.59,2.2,2.2,0,0,1,2,.81,1.61,1.61,0,0,1,.19.85l0,2.64c0,.09,0,.82.08,1.39Zm-.71-2.72c-.42,0-2,0-2,1.12,0,.35.22,1,1.15,1a1.3,1.3,0,0,0,1.17-.6,2.48,2.48,0,0,0,.27-1.45A5,5,0,0,0,68.87,34.57Z"></path>
      <path class="cls-1" d="M72.47,32.4v-.63h1v.89a2,2,0,0,1,3.78.87v3.76H76.22V33.78a1.22,1.22,0,0,0-.3-1,1.4,1.4,0,0,0-1-.37,1.47,1.47,0,0,0-1.45,1.65v3.18h-1Z"></path>
      <path class="cls-1" d="M83.09,29.36h1v7c0,.12,0,.59,0,.88h-1l0-.88a1.48,1.48,0,0,1-.49.58,2.49,2.49,0,0,1-1.36.41c-.74,0-2.38-.39-2.38-2.81,0-2.1,1.2-3,2.5-3a1.78,1.78,0,0,1,1.71.93Zm-.38,3.55a1.49,1.49,0,0,0-1.21-.56C80,32.35,80,34.18,80,34.56c0,1,.25,2.11,1.52,2.11,1.63,0,1.63-1.79,1.63-2.22A2.38,2.38,0,0,0,82.71,32.91Z"></path>
      <path class="cls-1" d="M90.72,29.35H91.9l3.21,7.94h-1.2l-.86-2.07H89.37l-.86,2.07H87.38Zm-1,5h3l-1.46-3.9Z"></path>
      <path class="cls-1" d="M96.89,35.65c0,.42.21,1,1.21,1a1.15,1.15,0,0,0,1-.35.87.87,0,0,0,.17-.52c0-.54-.38-.64-1.21-.83-1.15-.26-2.12-.49-2.12-1.65,0-1,.88-1.67,2.16-1.67a2.23,2.23,0,0,1,2,.86,1.78,1.78,0,0,1,.14.8H99.14c0-.83-.69-.9-1.06-.9-.16,0-1.12,0-1.12.79,0,.51.49.63.78.71,1.53.36,1.85.45,2.18.76a1.35,1.35,0,0,1,.42,1,1.69,1.69,0,0,1-.75,1.4,3.13,3.13,0,0,1-1.63.37c-1.12,0-2.17-.46-2.16-1.79Z"></path>
      <path class="cls-1" d="M102.5,35.65c0,.42.21,1,1.21,1a1.15,1.15,0,0,0,1-.35,1,1,0,0,0,.17-.52c0-.54-.38-.64-1.21-.83-1.15-.26-2.12-.49-2.12-1.65,0-1,.88-1.67,2.15-1.67a2.22,2.22,0,0,1,2,.86,1.67,1.67,0,0,1,.15.8h-1.06c0-.83-.69-.9-1.06-.9-.16,0-1.13,0-1.13.79,0,.51.5.63.78.71,1.53.36,1.86.45,2.19.76a1.35,1.35,0,0,1,.42,1,1.69,1.69,0,0,1-.75,1.4,3.15,3.15,0,0,1-1.64.37c-1.12,0-2.16-.46-2.15-1.79Z"></path>
      <path class="cls-1" d="M108.14,34.71c0,1.15.45,2,1.58,2a1.2,1.2,0,0,0,1.3-1.14h1a1.83,1.83,0,0,1-.47,1.15,2.36,2.36,0,0,1-1.9.74c-1.74,0-2.56-1.08-2.56-2.83A2.85,2.85,0,0,1,108.2,32a2.62,2.62,0,0,1,1.51-.41c2.47,0,2.42,2.19,2.4,3.09Zm2.91-.72c0-.53-.09-1.63-1.36-1.63A1.49,1.49,0,0,0,108.18,34Z"></path>
      <path class="cls-1" d="M113.72,32.5l0-.73h1v.8a1.86,1.86,0,0,1,1.74-.95,1.75,1.75,0,0,1,1.81,1,2,2,0,0,1,1.86-1,1.84,1.84,0,0,1,2,2v3.71h-1.05V33.74a1.35,1.35,0,0,0-.18-.83,1.26,1.26,0,0,0-1.06-.48,1.39,1.39,0,0,0-1.17.58,2.19,2.19,0,0,0-.25,1.18v3.1h-1V33.63a1.12,1.12,0,0,0-1.21-1.2A1.48,1.48,0,0,0,115,33a1.93,1.93,0,0,0-.24,1.12v3.14h-1Z"></path>
      <path class="cls-1" d="M125.26,32.57a1.83,1.83,0,0,1,1.8-.95,2.25,2.25,0,0,1,1.75.71,2.87,2.87,0,0,1,.65,2.07,3.25,3.25,0,0,1-.53,2,2.35,2.35,0,0,1-1.94.94,2.18,2.18,0,0,1-1.23-.35,1.94,1.94,0,0,1-.54-.56l0,.84h-1l0-1V29.35h1Zm1.56-.24c-1.58,0-1.58,1.84-1.58,2.19s0,2.09,1.53,2.09c1.28,0,1.6-1.24,1.6-2.14C128.37,33.92,128.26,32.33,126.82,32.33Z"></path>
      <path class="cls-1" d="M131.07,29.36h1v7.93h-1Z"></path>
      <path class="cls-1" d="M136.7,37.32l-.79,2h-1.07l.84-2.11-2.3-5.49h1.17l1.72,4.35L138,31.77h1.12Z"></path>
      <path class="cls-1" d="M43.13,47.25c0,.55.08,1.57,1.91,1.57,1.65,0,1.86-1,1.86-1.42,0-.89-.72-1.07-1.83-1.34a6.84,6.84,0,0,1-2.15-.71,1.78,1.78,0,0,1-.83-1.56c0-1.61,1.53-2.32,3-2.32a3.12,3.12,0,0,1,2.23.78,2,2,0,0,1,.48,1.36H46.69c-.06-1-.89-1.21-1.67-1.21-1.1,0-1.76.49-1.76,1.28s.46,1,1.43,1.18c1.89.48,2.1.53,2.56.84A1.8,1.8,0,0,1,48,47.28c0,1.41-1.1,2.47-3.13,2.47a3.21,3.21,0,0,1-2.47-.9,2.47,2.47,0,0,1-.46-1.6Z"></path>
      <path class="cls-1" d="M52,43.9a2.6,2.6,0,0,1,2.7,2.9,2.69,2.69,0,0,1-2.79,3,2.6,2.6,0,0,1-2.72-2.88A2.68,2.68,0,0,1,52,43.9ZM51.9,49c.78,0,1.67-.56,1.67-2.22,0-1.37-.64-2.1-1.6-2.1-.66,0-1.73.42-1.73,2.15C50.24,47.94,50.72,49,51.9,49Z"></path>
      <path class="cls-1" d="M56.42,41.64h1v7.93h-1Z"></path>
      <path class="cls-1" d="M60.51,44.05V47.6c0,.54.12,1.22,1.17,1.22A1.49,1.49,0,0,0,63,48.2a1.79,1.79,0,0,0,.23-1V44.05h1.07v4.48c0,.11,0,.73,0,1H63.24l0-1a1.71,1.71,0,0,1-1.76,1,1.77,1.77,0,0,1-2-1.87v-3.7Z"></path>
      <path class="cls-1" d="M65.53,44h1V42.87l1-.33V44h1.24v.76H67.53v3.31c0,.28,0,.74.74.74a2.57,2.57,0,0,0,.5,0v.8a5.7,5.7,0,0,1-.86.06c-1,0-1.4-.27-1.4-1.17V44.78h-1Z"></path>
      <path class="cls-1" d="M70.05,41.65h1.24v1.13H70.05Zm.11,2.4h1v5.52h-1Z"></path>
      <path class="cls-1" d="M75.71,43.9a2.61,2.61,0,0,1,2.71,2.9,2.69,2.69,0,0,1-2.79,3,2.6,2.6,0,0,1-2.72-2.88A2.68,2.68,0,0,1,75.71,43.9ZM75.65,49c.78,0,1.67-.56,1.67-2.22,0-1.37-.64-2.1-1.61-2.1-.66,0-1.72.42-1.72,2.15C74,47.94,74.47,49,75.65,49Z"></path>
      <path class="cls-1" d="M80.18,44.68v-.63h1v.89a1.81,1.81,0,0,1,1.77-1,1.83,1.83,0,0,1,2,1.88v3.75h-1V46.06a1.28,1.28,0,0,0-.3-1,1.43,1.43,0,0,0-1-.37,1.47,1.47,0,0,0-1.44,1.65v3.18h-1Z"></path>
      <path class="cls-1" d="M87.57,47.93c0,.42.21,1,1.21,1a1.12,1.12,0,0,0,1-.35.88.88,0,0,0,.18-.52c0-.54-.38-.64-1.21-.82-1.15-.27-2.12-.5-2.12-1.65s.88-1.68,2.15-1.68a2.22,2.22,0,0,1,2,.86,1.69,1.69,0,0,1,.15.81H89.82c0-.84-.69-.91-1.07-.91-.15,0-1.12,0-1.12.8,0,.5.5.62.78.7,1.53.36,1.86.45,2.19.76A1.35,1.35,0,0,1,91,48a1.68,1.68,0,0,1-.75,1.4,3.15,3.15,0,0,1-1.64.37c-1.12,0-2.16-.46-2.15-1.79Z"></path>
      <path class="cls-1" d="M98,42.4c-.17,0-.39,0-.6,0-.84,0-.84.42-.84.81v.87h1.29v.74H96.6v4.78h-1V44.79H94.49v-.74h1.09v-.63a2.24,2.24,0,0,1,.23-1.32,1.55,1.55,0,0,1,1.39-.6,6.31,6.31,0,0,1,.84.07Z"></path>
      <path class="cls-1" d="M101.44,43.9a2.61,2.61,0,0,1,2.71,2.9,2.69,2.69,0,0,1-2.8,3,2.6,2.6,0,0,1-2.71-2.88A2.68,2.68,0,0,1,101.44,43.9ZM101.38,49c.78,0,1.67-.56,1.67-2.22,0-1.37-.64-2.1-1.61-2.1-.66,0-1.72.42-1.72,2.15C99.72,47.94,100.2,49,101.38,49Z"></path>
      <path class="cls-1" d="M105.93,45.17a10.23,10.23,0,0,0-.06-1.12h1l0,1.06A1.5,1.5,0,0,1,108.26,44a3.58,3.58,0,0,1,.71,0v1l-.19,0h-.3c-1.22,0-1.51.72-1.51,1.67v2.94h-1Z"></path>
      <path class="cls-1" d="M113,41.63h2.67a2.58,2.58,0,0,1,2.16.64,2.1,2.1,0,0,1,.58,1.53,2.07,2.07,0,0,1-.62,1.55c-.42.42-1,.69-2.4.69h-1.29v3.53H113Zm1.1,3.48h1.31c.73,0,1.84,0,1.84-1.35s-1-1.24-1.61-1.24h-1.54Z"></path>
      <path class="cls-1" d="M121.86,43.9a2.6,2.6,0,0,1,2.7,2.9,2.69,2.69,0,0,1-2.79,3,2.6,2.6,0,0,1-2.71-2.88A2.67,2.67,0,0,1,121.86,43.9ZM121.79,49c.78,0,1.67-.56,1.67-2.22,0-1.37-.63-2.1-1.6-2.1-.66,0-1.73.42-1.73,2.15C120.13,47.94,120.62,49,121.79,49Z"></path>
      <path class="cls-1" d="M126.59,44.05l1.33,4.4,1.39-4.4h1.36l1.25,4.35,1.39-4.35h1.06l-1.94,5.52h-1.19L129.94,45l-1.44,4.55h-1.22l-1.83-5.52Z"></path>
      <path class="cls-1" d="M136.19,47c0,1.15.45,2,1.58,2a1.2,1.2,0,0,0,1.3-1.14h1a1.84,1.84,0,0,1-.47,1.15,2.37,2.37,0,0,1-1.91.74c-1.73,0-2.56-1.08-2.56-2.82a2.87,2.87,0,0,1,1.09-2.6,2.71,2.71,0,0,1,1.51-.41c2.47,0,2.42,2.19,2.4,3.09Zm2.91-.72c0-.53-.09-1.63-1.36-1.63a1.49,1.49,0,0,0-1.51,1.63Z"></path>
      <path class="cls-1" d="M141.84,45.17c0-.38,0-.76-.06-1.12h1.05l0,1.06A1.5,1.5,0,0,1,144.17,44a3.58,3.58,0,0,1,.71,0v1l-.19,0h-.3c-1.22,0-1.51.72-1.51,1.67v2.94h-1Z"></path>
      <path class="cls-1" d="M145.06,44h1V42.87l1-.33V44h1.23v.76h-1.23v3.31c0,.28,0,.74.74.74a2.45,2.45,0,0,0,.49,0v.8a5.6,5.6,0,0,1-.86.06c-.94,0-1.39-.27-1.39-1.17V44.78h-1Z"></path>
      <path class="cls-1" d="M149.73,45.17c0-.38,0-.76,0-1.12h1l0,1.06A1.5,1.5,0,0,1,152.06,44a3.67,3.67,0,0,1,.72,0v1l-.2,0h-.3c-1.22,0-1.5.72-1.5,1.67v2.94h-1.05Z"></path>
      <path class="cls-1" d="M157.43,49.57a2.9,2.9,0,0,1-.1-.83,1.79,1.79,0,0,1-1.71,1c-1.26,0-1.94-.71-1.94-1.62a1.8,1.8,0,0,1,1-1.62,4.28,4.28,0,0,1,1.91-.36c.26,0,.43,0,.75,0,0-.68,0-1-.2-1.22a1.25,1.25,0,0,0-1-.36c-1,0-1.1.71-1.11.93h-1a1.69,1.69,0,0,1,.38-1,2.46,2.46,0,0,1,1.78-.6,2.22,2.22,0,0,1,2,.81,1.61,1.61,0,0,1,.19.85l0,2.64c0,.09,0,.83.09,1.39Zm-.72-2.72c-.41,0-2,0-2,1.12,0,.35.22,1,1.15,1a1.31,1.31,0,0,0,1.17-.6,2.56,2.56,0,0,0,.27-1.45A5.09,5.09,0,0,0,156.71,46.85Z"></path>
      <path class="cls-1" d="M160.19,41.65h1.24v1.13h-1.24Zm.11,2.4h1v5.52h-1Z"></path>
      <path class="cls-1" d="M163.49,44.68l0-.63h1v.89a1.81,1.81,0,0,1,1.77-1,1.84,1.84,0,0,1,2,1.88v3.75h-1V46.06a1.28,1.28,0,0,0-.3-1,1.44,1.44,0,0,0-1-.37,1.47,1.47,0,0,0-1.44,1.65v3.18h-1Z"></path>
      <path class="cls-1" d="M6.71,13.6c-.08,1.12-.47,2.31-1.88,2.31a3,3,0,0,1-2-1.27l-2,2.12a4.83,4.83,0,0,0,4,2.11c3.71,0,5.53-2.28,5.53-5.9V1.15H6.73V12.68c0,.27,0,.59,0,.92m-.65-.92V.48h5V13c0,3.92-2.06,6.57-6.2,6.57A5.63,5.63,0,0,1,0,16.7l2.93-3.09c.31.42,1.2,1.63,1.9,1.63,1.31,0,1.23-1.67,1.23-2.56"></path>
      <path class="cls-1" d="M18.16,18.39h4L25.8,7.78h.83l3.2,10.61H33.9L39.41,1.15H35.59L32.14,13H31.3L27.7,1.15h-3L20.87,13H20L16.84,1.15H13Zm2.3-6.34L24.21.48h4l3.51,11.57L35.09.48h5.23L34.39,19.05H29.33L26.2,8.68,22.69,19.05h-5L12.12.48h5.23Z"></path>
      <polygon class="cls-1" points="52.09 4.64 52.09 0.61 41.56 0.61 41.56 18.94 46.33 18.94 46.33 11.74 51.55 11.74 51.55 7.71 46.33 7.71 46.33 4.64 52.09 4.64"></polygon>
      <path class="cls-1" d="M63.14,11.43a4.93,4.93,0,0,0,4-5.18c0-3.92-2.75-5.64-6.37-5.64H53.66V18.94h4.76v-7h0L63,18.94H68.9ZM58.42,4.26h.46c1.56,0,3.31.29,3.31,2.28s-1.75,2.29-3.31,2.29h-.46Z"></path>
      <path class="cls-1" d="M78.32,0C73,0,68.18,3.89,68.18,9.43A9.75,9.75,0,0,0,78.32,19.55,9.75,9.75,0,0,0,88.46,9.43C88.46,3.89,83.59,0,78.32,0m0,4.62A5.13,5.13,0,0,1,83.5,9.46a5.19,5.19,0,1,1-10.36,0,5.12,5.12,0,0,1,5.18-4.84"></path>
      <polygon class="cls-1" points="100.21 4.64 100.21 0.61 89.78 0.61 89.78 18.94 100.21 18.94 100.21 14.9 94.55 14.9 94.55 11.74 99.92 11.74 99.92 7.71 94.55 7.71 94.55 4.64 100.21 4.64"></polygon>
      <polygon class="cls-1" points="106.56 7.68 106.56 0.61 101.79 0.61 101.79 18.94 106.56 18.94 106.56 11.43 113.44 11.43 113.44 18.94 118.21 18.94 118.21 0.61 113.44 0.61 113.44 7.68 106.56 7.68"></polygon>
      <polygon class="cls-1" points="124.59 0.61 119.83 0.61 119.83 18.94 130.31 18.94 130.31 14.91 124.59 14.91 124.59 0.61"></polygon>
      <rect class="cls-1" x="131.86" y="0.61" width="4.77" height="18.33"></rect>
      <path class="cls-1" d="M152,1.05a11.07,11.07,0,0,0-4.35-.93,9.93,9.93,0,0,0-7,3A9.59,9.59,0,0,0,138,9.8a9,9,0,0,0,2.94,6.93,10.2,10.2,0,0,0,6.88,2.7,13.65,13.65,0,0,0,4.21-.85V12.86a5.48,5.48,0,0,1-4.11,2,4.76,4.76,0,0,1-5-5,4.83,4.83,0,0,1,4.89-5.08,5.17,5.17,0,0,1,4.18,2Z"></path>
      <polygon class="cls-1" points="158.35 7.68 158.35 0.61 153.59 0.61 153.59 18.94 158.35 18.94 158.35 11.43 165.23 11.43 165.23 18.94 170 18.94 170 0.61 165.23 0.61 165.23 7.68 158.35 7.68"></polygon>
    </g>
  </g>
</svg>
